<svg width="64" height="64" viewBox="0 0 64 64" fill="none" xmlns="http://www.w3.org/2000/svg">
<path d="M28.5714 24.8281V47.6094C28.5714 48.3083 27.9958 48.875 27.2857 48.875H24.7143C24.0043 48.875 23.4286 48.3083 23.4286 47.6094V24.8281C23.4286 24.1292 24.0043 23.5625 24.7143 23.5625H27.2857C27.9958 23.5625 28.5714 24.1292 28.5714 24.8281ZM39.2857 23.5625H36.7143C36.0043 23.5625 35.4286 24.1292 35.4286 24.8281V47.6094C35.4286 48.3083 36.0043 48.875 36.7143 48.875H39.2857C39.9958 48.875 40.5714 48.3083 40.5714 47.6094V24.8281C40.5714 24.1292 39.9958 23.5625 39.2857 23.5625ZM53.4286 13.4375C54.8488 13.4375 56 14.5708 56 15.9688V17.2344C56 17.9333 55.4243 18.5 54.7143 18.5H52.5714V53.9375C52.5714 56.7335 50.2689 59 47.4286 59H16.5714C13.7311 59 11.4286 56.7335 11.4286 53.9375V18.5H9.28571C8.57568 18.5 8 17.9333 8 17.2344V15.9688C8 14.5708 9.15125 13.4375 10.5714 13.4375H18.544L22.1888 7.45784C22.6457 6.70821 23.2921 6.08782 24.0649 5.65709C24.8378 5.22637 25.7107 4.99999 26.5988 5L37.4013 5C38.2894 4.99999 39.1624 5.22637 39.9352 5.65709C40.708 6.08782 41.3544 6.70821 41.8113 7.45784L45.456 13.4375H53.4286ZM24.5417 13.4375H39.4584L37.5886 10.3697C37.5315 10.276 37.4507 10.1985 37.3541 10.1446C37.2575 10.0908 37.1483 10.0625 37.0373 10.0625H26.9629C26.8519 10.0625 26.7428 10.0908 26.6462 10.1446C26.5496 10.1985 26.4688 10.276 26.4116 10.3697L24.5417 13.4375ZM47.4286 18.5H16.5714V53.3047C16.5714 53.4725 16.6392 53.6335 16.7597 53.7522C16.8803 53.8708 17.0438 53.9375 17.2143 53.9375H46.7857C46.9562 53.9375 47.1197 53.8708 47.2403 53.7522C47.3608 53.6335 47.4286 53.4725 47.4286 53.3047V18.5Z" fill="black"/>
</svg>
