<svg width="64" height="64" viewBox="0 0 64 64" fill="none" xmlns="http://www.w3.org/2000/svg">
<path d="M50.7867 19.736C51.7947 18.728 52.3493 17.3894 52.3493 15.9654C52.3493 14.5414 51.7947 13.2027 50.7867 12.1947L46.5573 7.96538C45.5493 6.95738 44.2107 6.40271 42.7867 6.40271C41.3627 6.40271 40.024 6.95738 39.0187 7.96271L10.6667 36.2267V48H22.4347L50.7867 19.736ZM42.7867 11.736L47.0187 15.9627L42.7787 20.1867L38.5493 15.96L42.7867 11.736ZM16 42.6667V38.44L34.7733 19.7254L39.0027 23.9547L20.232 42.6667H16ZM10.6667 53.3334H53.3333V58.6667H10.6667V53.3334Z" fill="black"/>
</svg>
