<svg width="36" height="32" viewBox="0 0 36 32" fill="none" xmlns="http://www.w3.org/2000/svg">
<path d="M35.332 29.4375L19.082 1.3125C18.8399 0.894531 18.4219 0.6875 18 0.6875C17.5781 0.6875 17.1563 0.894531 16.918 1.3125L0.667982 29.4375C0.187513 30.2734 0.789076 31.3125 1.75001 31.3125H34.25C35.211 31.3125 35.8125 30.2734 35.332 29.4375ZM16.75 12.25C16.75 12.0781 16.8906 11.9375 17.0625 11.9375H18.9375C19.1094 11.9375 19.25 12.0781 19.25 12.25V19.4375C19.25 19.6094 19.1094 19.75 18.9375 19.75H17.0625C16.8906 19.75 16.75 19.6094 16.75 19.4375V12.25ZM18 26C17.5094 25.99 17.0422 25.788 16.6987 25.4375C16.3553 25.087 16.1629 24.6158 16.1629 24.125C16.1629 23.6342 16.3553 23.163 16.6987 22.8125C17.0422 22.462 17.5094 22.26 18 22.25C18.4907 22.26 18.9578 22.462 19.3013 22.8125C19.6448 23.163 19.8371 23.6342 19.8371 24.125C19.8371 24.6158 19.6448 25.087 19.3013 25.4375C18.9578 25.788 18.4907 25.99 18 26V26Z" fill="#514B42"/>
</svg>
